{
  "accessors": [
    {
      "bufferView": 2,
      "componentType": 5126,
      "count": 604,
      "max": [
        0.785186767578125,
        14.295307159423828,
        7.750766754150391
      ],
      "min": [
        -0.785186767578125,
        -9.117731094360352,
        -2.864569664001465
      ],
      "type": "VEC3"
    },
    {
      "bufferView": 2,
      "byteOffset": 7248,
      "componentType": 5126,
      "count": 604,
      "max": [
        1.0,
        0.9999938607215881,
        1.0
      ],
      "min": [
        -1.0,
        -1.0,
        -1.0
      ],
      "type": "VEC3"
    },
    {
      "bufferView": 1,
      "componentType": 5126,
      "count": 604,
      "max": [
        0.6875,
        0.8328150510787964
      ],
      "min": [
        0.0,
        0.0
      ],
      "type": "VEC2"
    },
    {
      "bufferView": 0,
      "componentType": 5125,
      "count": 918,
      "type": "SCALAR"
    },
    {
      "bufferView": 2,
      "byteOffset": 14496,
      "componentType": 5126,
      "count": 2020,
      "max": [
        0.9360356330871582,
        3.499309539794922,
        8.21781063079834
      ],
      "min": [
        -0.81299889087677,
        -20.925609588623047,
        0.24206078052520752
      ],
      "type": "VEC3"
    },
    {
      "bufferView": 2,
      "byteOffset": 38736,
      "componentType": 5126,
      "count": 2020,
      "max": [
        1.0,
        1.0,
        1.0
      ],
      "min": [
        -1.0,
        -1.0,
        -1.0
      ],
      "type": "VEC3"
    },
    {
      "bufferView": 1,
      "byteOffset": 4832,
      "componentType": 5126,
      "count": 2020,
      "max": [
        1.0,
        1.0
      ],
      "min": [
        -8.940696716308594e-08,
        0.0
      ],
      "type": "VEC2"
    },
    {
      "bufferView": 0,
      "byteOffset": 3672,
      "componentType": 5125,
      "count": 3060,
      "type": "SCALAR"
    },
    {
      "bufferView": 2,
      "byteOffset": 62976,
      "componentType": 5126,
      "count": 150,
      "max": [
        0.5834556221961975,
        13.475970268249512,
        5.066189289093018
      ],
      "min": [
        -0.5834556221961975,
        -9.60167121887207,
        0.6346142292022705
      ],
      "type": "VEC3"
    },
    {
      "bufferView": 2,
      "byteOffset": 64776,
      "componentType": 5126,
      "count": 150,
      "max": [
        1.0,
        0.9994376301765442,
        0.9685639142990112
      ],
      "min": [
        -1.0,
        -1.0,
        -0.9999791383743286
      ],
      "type": "VEC3"
    },
    {
      "bufferView": 1,
      "byteOffset": 20992,
      "componentType": 5126,
      "count": 150,
      "max": [
        0.625,
        0.75
      ],
      "min": [
        0.0,
        0.0
      ],
      "type": "VEC2"
    },
    {
      "bufferView": 0,
      "byteOffset": 15912,
      "componentType": 5125,
      "count": 228,
      "type": "SCALAR"
    },
    {
      "bufferView": 2,
      "byteOffset": 66576,
      "componentType": 5126,
      "count": 56,
      "max": [
        0.6251118779182434,
        1.000000238418579,
        3.73865008354187
      ],
      "min": [
        -0.6251118779182434,
        -1.2058454751968384,
        -8.057524681091309
      ],
      "type": "VEC3"
    },
    {
      "bufferView": 2,
      "byteOffset": 67248,
      "componentType": 5126,
      "count": 56,
      "max": [
        1.0,
        0.9999911785125732,
        0.9800187945365906
      ],
      "min": [
        -1.0,
        -1.0,
        -0.9999762773513794
      ],
      "type": "VEC3"
    },
    {
      "bufferView": 1,
      "byteOffset": 22192,
      "componentType": 5126,
      "count": 56,
      "max": [
        0.625,
        0.75
      ],
      "min": [
        0.375,
        0.5
      ],
      "type": "VEC2"
    },
    {
      "bufferView": 0,
      "byteOffset": 16824,
      "componentType": 5125,
      "count": 84,
      "type": "SCALAR"
    },
    {
      "bufferView": 2,
      "byteOffset": 67920,
      "componentType": 5126,
      "count": 136,
      "max": [
        0.11839364469051361,
        0.36126238107681274,
        1.063291072845459
      ],
      "min": [
        -0.11839364469051361,
        -0.4697052240371704,
        -1.8705329895019531
      ],
      "type": "VEC3"
    },
    {
      "bufferView": 2,
      "byteOffset": 69552,
      "componentType": 5126,
      "count": 136,
      "max": [
        1.0,
        0.9999806880950928,
        0.9978348612785339
      ],
      "min": [
        -1.0,
        -0.999735951423645,
        -0.8926870822906494
      ],
      "type": "VEC3"
    },
    {
      "bufferView": 1,
      "byteOffset": 22640,
      "componentType": 5126,
      "count": 136,
      "max": [
        0.0,
        0.0
      ],
      "min": [
        0.0,
        0.0
      ],
      "type": "VEC2"
    },
    {
      "bufferView": 0,
      "byteOffset": 17160,
      "componentType": 5125,
      "count": 204,
      "type": "SCALAR"
    },
    {
      "bufferView": 2,
      "byteOffset": 71184,
      "componentType": 5126,
      "count": 82,
      "max": [
        1.0602816343307495,
        25.19487190246582,
        4.576534271240234
      ],
      "min": [
        -2.693297863006592,
        -2.889780044555664,
        -2.749265193939209
      ],
      "type": "VEC3"
    },
    {
      "bufferView": 2,
      "byteOffset": 72168,
      "componentType": 5126,
      "count": 82,
      "max": [
        1.0,
        1.0,
        1.0
      ],
      "min": [
        -1.0,
        -1.0,
        -1.0
      ],
      "type": "VEC3"
    },
    {
      "bufferView": 1,
      "byteOffset": 23728,
      "componentType": 5126,
      "count": 82,
      "max": [
        1.0,
        1.0
      ],
      "min": [
        -8.940696716308594e-08,
        0.0
      ],
      "type": "VEC2"
    },
    {
      "bufferView": 0,
      "byteOffset": 17976,
      "componentType": 5125,
      "count": 126,
      "type": "SCALAR"
    },
    {
      "bufferView": 2,
      "byteOffset": 73152,
      "componentType": 5126,
      "count": 144,
      "max": [
        1.7437883615493774,
        2.0135531425476074,
        14.94060230255127
      ],
      "min": [
        -1.7437865734100342,
        -2.013551950454712,
        -3.524184226989746
      ],
      "type": "VEC3"
    },
    {
      "bufferView": 2,
      "byteOffset": 74880,
      "componentType": 5126,
      "count": 144,
      "max": [
        1.0,
        0.8660255074501038,
        0.9322423338890076
      ],
      "min": [
        -1.0,
        -0.8660255074501038,
        -1.0
      ],
      "type": "VEC3"
    },
    {
      "bufferView": 1,
      "byteOffset": 24384,
      "componentType": 5126,
      "count": 144,
      "max": [
        0.0,
        0.0
      ],
      "min": [
        0.0,
        0.0
      ],
      "type": "VEC2"
    },
    {
      "bufferView": 0,
      "byteOffset": 18480,
      "componentType": 5125,
      "count": 216,
      "type": "SCALAR"
    },
    {
      "bufferView": 2,
      "byteOffset": 76608,
      "componentType": 5126,
      "count": 148,
      "max": [
        1.4625248908996582,
        2.2321999073028564,
        6.097622871398926
      ],
      "min": [
        -1.462522029876709,
        -1.3269041776657104,
        -4.170090675354004
      ],
      "type": "VEC3"
    },
    {
      "bufferView": 2,
      "byteOffset": 78384,
      "componentType": 5126,
      "count": 148,
      "max": [
        1.0,
        1.0,
        1.0
      ],
      "min": [
        -1.0,
        -1.0,
        -1.0
      ],
      "type": "VEC3"
    },
    {
      "bufferView": 1,
      "byteOffset": 25536,
      "componentType": 5126,
      "count": 148,
      "max": [
        0.0,
        0.0
      ],
      "min": [
        0.0,
        0.0
      ],
      "type": "VEC2"
    },
    {
      "bufferView": 0,
      "byteOffset": 19344,
      "componentType": 5125,
      "count": 228,
      "type": "SCALAR"
    },
    {
      "bufferView": 2,
      "byteOffset": 80160,
      "componentType": 5126,
      "count": 764,
      "max": [
        1.6210542917251587,
        1.491485595703125,
        6.363875865936279
      ],
      "min": [
        -2.3050177097320557,
        -1.6023283004760742,
        -3.740955114364624
      ],
      "type": "VEC3"
    },
    {
      "bufferView": 2,
      "byteOffset": 89328,
      "componentType": 5126,
      "count": 764,
      "max": [
        1.0,
        1.0,
        1.0
      ],
      "min": [
        -1.0,
        -1.0,
        -1.0
      ],
      "type": "VEC3"
    },
    {
      "bufferView": 1,
      "byteOffset": 26720,
      "componentType": 5126,
      "count": 764,
      "max": [
        1.0,
        1.0001312494277954
      ],
      "min": [
        -8.940696716308594e-08,
        0.0
      ],
      "type": "VEC2"
    },
    {
      "bufferView": 0,
      "byteOffset": 20256,
      "componentType": 5125,
      "count": 1128,
      "type": "SCALAR"
    },
    {
      "bufferView": 2,
      "byteOffset": 98496,
      "componentType": 5126,
      "count": 610,
      "max": [
        1.5961421728134155,
        1.5961416959762573,
        6.6086015701293945
      ],
      "min": [
        -1.5961389541625977,
        -1.596139907836914,
        -8.339571952819824
      ],
      "type": "VEC3"
    },
    {
      "bufferView": 2,
      "byteOffset": 105816,
      "componentType": 5126,
      "count": 610,
      "max": [
        0.9238800406455994,
        1.0,
        1.0
      ],
      "min": [
        -1.0,
        -0.9238799214363098,
        -1.0
      ],
      "type": "VEC3"
    },
    {
      "bufferView": 1,
      "byteOffset": 32832,
      "componentType": 5126,
      "count": 610,
      "max": [
        1.0,
        1.0
      ],
      "min": [
        -8.940696716308594e-08,
        0.01000000536441803
      ],
      "type": "VEC2"
    },
    {
      "bufferView": 0,
      "byteOffset": 24768,
      "componentType": 5125,
      "count": 924,
      "type": "SCALAR"
    },
    {
      "bufferView": 2,
      "byteOffset": 113136,
      "componentType": 5126,
      "count": 64,
      "max": [
        1.0667229890823364,
        1.0851218700408936,
        1.5156363248825073
      ],
      "min": [
        -1.100685477256775,
        -1.0822865962982178,
        1.1942100524902344
      ],
      "type": "VEC3"
    },
    {
      "bufferView": 2,
      "byteOffset": 113904,
      "componentType": 5126,
      "count": 64,
      "max": [
        0.9106230139732361,
        0.9106231927871704,
        -0.175405815243721
      ],
      "min": [
        -0.9106228947639465,
        -0.9106230139732361,
        -1.0
      ],
      "type": "VEC3"
    },
    {
      "bufferView": 1,
      "byteOffset": 37712,
      "componentType": 5126,
      "count": 64,
      "max": [
        0.96875,
        1.0000001192092896
      ],
      "min": [
        0.09375,
        0.9999998211860657
      ],
      "type": "VEC2"
    },
    {
      "bufferView": 0,
      "byteOffset": 28464,
      "componentType": 5125,
      "count": 96,
      "type": "SCALAR"
    },
    {
      "bufferView": 2,
      "byteOffset": 114672,
      "componentType": 5126,
      "count": 160,
      "max": [
        1.2574154138565063,
        1.2574158906936646,
        6.018267631530762
      ],
      "min": [
        -1.2574124336242676,
        -1.2574127912521362,
        -7.602514266967773
      ],
      "type": "VEC3"
    },
    {
      "bufferView": 2,
      "byteOffset": 116592,
      "componentType": 5126,
      "count": 160,
      "max": [
        0.2660531997680664,
        0.26605111360549927,
        1.0
      ],
      "min": [
        -0.2660519480705261,
        -0.26605045795440674,
        -1.0
      ],
      "type": "VEC3"
    },
    {
      "bufferView": 1,
      "byteOffset": 38224,
      "componentType": 5126,
      "count": 160,
      "max": [
        0.0,
        0.0
      ],
      "min": [
        0.0,
        0.0
      ],
      "type": "VEC2"
    },
    {
      "bufferView": 0,
      "byteOffset": 28848,
      "componentType": 5125,
      "count": 264,
      "type": "SCALAR"
    }
  ],
  "asset": {
    "extras": {
      "author": "redraptor (https://sketchfab.com/makbuk4)",
      "license": "CC-BY-4.0 (http://creativecommons.org/licenses/by/4.0/)",
      "source": "https://sketchfab.com/3d-models/ump45-low-poly-10f7f63ac31a4c4ea9f1b87a999878aa",
      "title": "UMP45 Low-Poly"
    },
    "generator": "Sketchfab-12.65.0",
    "version": "2.0"
  },
  "bufferViews": [
    {
      "buffer": 0,
      "byteLength": 29904,
      "name": "floatBufferViews",
      "target": 34963
    },
    {
      "buffer": 0,
      "byteLength": 39504,
      "byteOffset": 29904,
      "byteStride": 8,
      "name": "floatBufferViews",
      "target": 34962
    },
    {
      "buffer": 0,
      "byteLength": 118512,
      "byteOffset": 69408,
      "byteStride": 12,
      "name": "floatBufferViews",
      "target": 34962
    }
  ],
  "buffers": [
    {
      "byteLength": 187920,
      "uri": "scene.bin"
    }
  ],
  "materials": [
    {
      "doubleSided": true,
      "name": "plastic",
      "pbrMetallicRoughness": {
        "baseColorFactor": [
          0.056706902912165215,
          0.056706902912165215,
          0.056706902912165215,
          1.0
        ],
        "metallicFactor": 0.0,
        "roughnessFactor": 0.9803365553
      }
    },
    {
      "doubleSided": true,
      "name": "metal",
      "pbrMetallicRoughness": {
        "baseColorFactor": [
          0.04689461941488295,
          0.04689461941488295,
          0.04689461941488295,
          1.0
        ],
        "roughnessFactor": 0.9883237226
      }
    },
    {
      "doubleSided": true,
      "name": "plastic.001",
      "pbrMetallicRoughness": {
        "baseColorFactor": [
          0.1268528687226885,
          0.1268528687226885,
          0.1268528687226885,
          1.0
        ],
        "roughnessFactor": 0.9515789308
      }
    },
    {
      "alphaMode": "BLEND",
      "doubleSided": true,
      "name": "Material.001",
      "pbrMetallicRoughness": {
        "baseColorFactor": [
          0.8,
          0.8,
          0.8,
          0.0383003049
        ],
        "metallicFactor": 0.0,
        "roughnessFactor": 0.8040408206
      }
    }
  ],
  "meshes": [
    {
      "name": "Cube.055_plastic_0",
      "primitives": [
        {
          "attributes": {
            "NORMAL": 1,
            "POSITION": 0,
            "TEXCOORD_0": 2
          },
          "indices": 3,
          "material": 0,
          "mode": 4
        }
      ]
    },
    {
      "name": "Cube.055_metal_0",
      "primitives": [
        {
          "attributes": {
            "NORMAL": 5,
            "POSITION": 4,
            "TEXCOORD_0": 6
          },
          "indices": 7,
          "material": 1,
          "mode": 4
        }
      ]
    },
    {
      "name": "Cube.055_plastic.001_0",
      "primitives": [
        {
          "attributes": {
            "NORMAL": 9,
            "POSITION": 8,
            "TEXCOORD_0": 10
          },
          "indices": 11,
          "material": 2,
          "mode": 4
        }
      ]
    },
    {
      "name": "Cube.039_metal_0",
      "primitives": [
        {
          "attributes": {
            "NORMAL": 13,
            "POSITION": 12,
            "TEXCOORD_0": 14
          },
          "indices": 15,
          "material": 1,
          "mode": 4
        }
      ]
    },
    {
      "name": "Cube.041_metal_0",
      "primitives": [
        {
          "attributes": {
            "NORMAL": 17,
            "POSITION": 16,
            "TEXCOORD_0": 18
          },
          "indices": 19,
          "material": 1,
          "mode": 4
        }
      ]
    },
    {
      "name": "Cylinder.020_metal_0",
      "primitives": [
        {
          "attributes": {
            "NORMAL": 21,
            "POSITION": 20,
            "TEXCOORD_0": 22
          },
          "indices": 23,
          "material": 1,
          "mode": 4
        }
      ]
    },
    {
      "name": "Cylinder.022_metal_0",
      "primitives": [
        {
          "attributes": {
            "NORMAL": 25,
            "POSITION": 24,
            "TEXCOORD_0": 26
          },
          "indices": 27,
          "material": 1,
          "mode": 4
        }
      ]
    },
    {
      "name": "Cylinder.023_plastic_0",
      "primitives": [
        {
          "attributes": {
            "NORMAL": 29,
            "POSITION": 28,
            "TEXCOORD_0": 30
          },
          "indices": 31,
          "material": 0,
          "mode": 4
        }
      ]
    },
    {
      "name": "Cylinder.030_metal_0",
      "primitives": [
        {
          "attributes": {
            "NORMAL": 33,
            "POSITION": 32,
            "TEXCOORD_0": 34
          },
          "indices": 35,
          "material": 1,
          "mode": 4
        }
      ]
    },
    {
      "name": "Cylinder.030_plastic_0",
      "primitives": [
        {
          "attributes": {
            "NORMAL": 37,
            "POSITION": 36,
            "TEXCOORD_0": 38
          },
          "indices": 39,
          "material": 0,
          "mode": 4
        }
      ]
    },
    {
      "name": "Cylinder.030_plastic.001_0",
      "primitives": [
        {
          "attributes": {
            "NORMAL": 41,
            "POSITION": 40,
            "TEXCOORD_0": 42
          },
          "indices": 43,
          "material": 2,
          "mode": 4
        }
      ]
    },
    {
      "name": "Cylinder.030_Material.001_0",
      "primitives": [
        {
          "attributes": {
            "NORMAL": 45,
            "POSITION": 44,
            "TEXCOORD_0": 46
          },
          "indices": 47,
          "material": 3,
          "mode": 4
        }
      ]
    }
  ],
  "nodes": [
    {
      "children": [
        1
      ],
      "matrix": [
        1.0,
        0.0,
        0.0,
        0.0,
        0.0,
        2.220446049250313e-16,
        -1.0,
        0.0,
        0.0,
        1.0,
        2.220446049250313e-16,
        0.0,
        0.0,
        0.0,
        0.0,
        1.0
      ],
      "name": "Sketchfab_model"
    },
    {
      "children": [
        2
      ],
      "matrix": [
        1.0,
        0.0,
        0.0,
        0.0,
        0.0,
        0.0,
        1.0,
        0.0,
        0.0,
        -1.0,
        0.0,
        0.0,
        0.0,
        0.0,
        0.0,
        1.0
      ],
      "name": "ea074843774946c3a331dbe1ffb85c48.fbx"
    },
    {
      "children": [
        3,
        11,
        13,
        15,
        17
      ],
      "name": "RootNode"
    },
    {
      "children": [
        4,
        5,
        6,
        7,
        9
      ],
      "matrix": [
        100.0,
        0.0,
        0.0,
        0.0,
        0.0,
        -1.629206793918314e-05,
        -99.99999999999868,
        0.0,
        0.0,
        99.99999999999868,
        -1.629206793918314e-05,
        0.0,
        5.178108812330183e-16,
        2.332012891769409,
        -319.8538818359375,
        1.0
      ],
      "name": "Cube.055"
    },
    {
      "mesh": 0,
      "name": "Cube.055_plastic_0"
    },
    {
      "mesh": 1,
      "name": "Cube.055_metal_0"
    },
    {
      "mesh": 2,
      "name": "Cube.055_plastic.001_0"
    },
    {
      "children": [
        8
      ],
      "matrix": [
        1.0,
        4.45813375192701e-18,
        4.427114644392394e-17,
        0.0,
        4.458135223617028e-18,
        0.9799223465931969,
        -0.19937952414248175,
        0.0,
        -4.427114629572376e-17,
        0.19937952414248175,
        0.9799223465931969,
        0.0,
        -1.722515448188382e-17,
        -8.164616584777832,
        -0.0775751993060112,
        1.0
      ],
      "name": "Cube.039"
    },
    {
      "mesh": 3,
      "name": "Cube.039_metal_0"
    },
    {
      "children": [
        10
      ],
      "matrix": [
        1.0,
        0.0,
        0.0,
        0.0,
        0.0,
        1.0,
        -2.646977960169688e-23,
        0.0,
        0.0,
        2.646977960169688e-23,
        1.0,
        0.0,
        5.18163246939076e-16,
        -2.373202323913574,
        2.333599805831909,
        1.0
      ],
      "name": "Cube.041"
    },
    {
      "mesh": 4,
      "name": "Cube.041_metal_0"
    },
    {
      "children": [
        12
      ],
      "matrix": [
        1.3743436378718954e-06,
        -18.203733444213817,
        0.0,
        0.0,
        1.3743436388824057e-06,
        1.0105102001952619e-13,
        -18.203733444213817,
        0.0,
        18.203733444213768,
        1.3743436388824057e-06,
        1.3743436378718954e-06,
        0.0,
        54.86137390136719,
        605.1229248046875,
        1197.125,
        1.0
      ],
      "name": "Cylinder.020"
    },
    {
      "mesh": 5,
      "name": "Cylinder.020_metal_0"
    },
    {
      "children": [
        14
      ],
      "matrix": [
        28.786123508551505,
        -49.859045551479035,
        7.365932740655993e-14,
        0.0,
        49.859045551478985,
        28.78612350855148,
        2.5165641041491616e-06,
        0.0,
        -2.1794086679412463e-06,
        -1.258281664967999e-06,
        57.57226181030268,
        0.0,
        -0.5841273069381714,
        440.9884338378906,
        1772.70703125,
        1.0
      ],
      "name": "Cylinder.022"
    },
    {
      "mesh": 6,
      "name": "Cylinder.022_metal_0"
    },
    {
      "children": [
        16
      ],
      "matrix": [
        57.572261810302734,
        0.0,
        0.0,
        0.0,
        0.0,
        -9.37971200825891e-06,
        -57.572261810301974,
        0.0,
        0.0,
        57.572261810301974,
        -9.37971200825891e-06,
        0.0,
        3.2050214940682054e-05,
        -8.530752182006836,
        982.4251098632813,
        1.0
      ],
      "name": "Cylinder.023"
    },
    {
      "mesh": 7,
      "name": "Cylinder.023_plastic_0"
    },
    {
      "children": [
        18,
        19,
        20,
        21
      ],
      "matrix": [
        1.4260109002074012e-05,
        73.23873901367048,
        -8.586851061396728e-14,
        0.0,
        -73.23873901367041,
        1.4260109002074012e-05,
        3.201366698461401e-06,
        0.0,
        3.2013666984613573e-06,
        -5.374605997847065e-13,
        73.2387390136718,
        0.0,
        -2.5345487359817835e-15,
        841.5449829101563,
        369.23876953125,
        1.0
      ],
      "name": "Cylinder.030"
    },
    {
      "mesh": 8,
      "name": "Cylinder.030_metal_0"
    },
    {
      "mesh": 9,
      "name": "Cylinder.030_plastic_0"
    },
    {
      "mesh": 10,
      "name": "Cylinder.030_plastic.001_0"
    },
    {
      "mesh": 11,
      "name": "Cylinder.030_Material.001_0"
    }
  ],
  "scene": 0,
  "scenes": [
    {
      "name": "Sketchfab_Scene",
      "nodes": [
        0
      ]
    }
  ]
}
