{
  "accessors": [
    {
      "bufferView": 2,
      "componentType": 5126,
      "count": 7130,
      "max": [
        1.0004768371582031,
        1.000171422958374,
        1.1482454538345337
      ],
      "min": [
        -1.0004802942276,
        -1.000184416770935,
        -0.8517546653747559
      ],
      "type": "VEC3"
    },
    {
      "bufferView": 2,
      "byteOffset": 85560,
      "componentType": 5126,
      "count": 7130,
      "max": [
        1.0,
        1.0,
        1.0
      ],
      "min": [
        -1.0,
        -1.0,
        -1.0
      ],
      "type": "VEC3"
    },
    {
      "bufferView": 1,
      "componentType": 5126,
      "count": 7130,
      "max": [
        1.0,
        1.0
      ],
      "min": [
        0.0,
        0.0
      ],
      "type": "VEC2"
    },
    {
      "bufferView": 1,
      "byteOffset": 57040,
      "componentType": 5126,
      "count": 7130,
      "max": [
        1.0,
        1.0
      ],
      "min": [
        0.0,
        0.0
      ],
      "type": "VEC2"
    },
    {
      "bufferView": 1,
      "byteOffset": 114080,
      "componentType": 5126,
      "count": 7130,
      "max": [
        1.0,
        1.0
      ],
      "min": [
        0.0,
        0.0
      ],
      "type": "VEC2"
    },
    {
      "bufferView": 0,
      "componentType": 5125,
      "count": 18120,
      "type": "SCALAR"
    },
    {
      "bufferView": 2,
      "byteOffset": 171120,
      "componentType": 5126,
      "count": 576,
      "max": [
        0.9090487957000732,
        0.9087433218955994,
        0.9395431280136108
      ],
      "min": [
        -0.9090522527694702,
        -0.90875643491745,
        -0.6476017236709595
      ],
      "type": "VEC3"
    },
    {
      "bufferView": 2,
      "byteOffset": 178032,
      "componentType": 5126,
      "count": 576,
      "max": [
        1.0,
        1.0,
        4.0547240587329725e-07
      ],
      "min": [
        -1.0,
        -1.0,
        -3.824553971298883e-07
      ],
      "type": "VEC3"
    },
    {
      "bufferView": 1,
      "byteOffset": 171120,
      "componentType": 5126,
      "count": 576,
      "max": [
        0.9307209253311157,
        0.8979236483573914
      ],
      "min": [
        0.06818180531263351,
        0.10435113310813904
      ],
      "type": "VEC2"
    },
    {
      "bufferView": 1,
      "byteOffset": 175728,
      "componentType": 5126,
      "count": 576,
      "max": [
        0.9307209253311157,
        0.8979236483573914
      ],
      "min": [
        0.06818180531263351,
        0.10435113310813904
      ],
      "type": "VEC2"
    },
    {
      "bufferView": 1,
      "byteOffset": 180336,
      "componentType": 5126,
      "count": 576,
      "max": [
        0.9307209253311157,
        0.8979236483573914
      ],
      "min": [
        0.06818180531263351,
        0.10435113310813904
      ],
      "type": "VEC2"
    },
    {
      "bufferView": 0,
      "byteOffset": 72480,
      "componentType": 5125,
      "count": 864,
      "type": "SCALAR"
    },
    {
      "bufferView": 2,
      "byteOffset": 184944,
      "componentType": 5126,
      "count": 32,
      "max": [
        1.0,
        0.0,
        1.0
      ],
      "min": [
        -1.0,
        0.0,
        -1.0
      ],
      "type": "VEC3"
    },
    {
      "bufferView": 2,
      "byteOffset": 185328,
      "componentType": 5126,
      "count": 32,
      "max": [
        0.0,
        1.0,
        -0.0
      ],
      "min": [
        0.0,
        1.0,
        -0.0
      ],
      "type": "VEC3"
    },
    {
      "bufferView": 1,
      "byteOffset": 184944,
      "componentType": 5126,
      "count": 32,
      "max": [
        0.5061787962913513,
        0.49115559458732605
      ],
      "min": [
        0.5061787962913513,
        0.49115559458732605
      ],
      "type": "VEC2"
    },
    {
      "bufferView": 0,
      "byteOffset": 75936,
      "componentType": 5125,
      "count": 90,
      "type": "SCALAR"
    },
    {
      "bufferView": 2,
      "byteOffset": 185712,
      "componentType": 5126,
      "count": 2134,
      "max": [
        0.9997698068618774,
        10.106758117675781,
        8.492713928222656
      ],
      "min": [
        -1.00022554397583,
        -18.8383731842041,
        -7.069342613220215
      ],
      "type": "VEC3"
    },
    {
      "bufferView": 2,
      "byteOffset": 211320,
      "componentType": 5126,
      "count": 2134,
      "max": [
        0.9999980330467224,
        1.0,
        0.9999963641166687
      ],
      "min": [
        -0.9999979734420776,
        -1.0,
        -0.9999837279319763
      ],
      "type": "VEC3"
    },
    {
      "bufferView": 1,
      "byteOffset": 185200,
      "componentType": 5126,
      "count": 2134,
      "max": [
        0.9900000095367432,
        1.0
      ],
      "min": [
        0.01000000536441803,
        0.0
      ],
      "type": "VEC2"
    },
    {
      "bufferView": 0,
      "byteOffset": 76296,
      "componentType": 5125,
      "count": 7638,
      "type": "SCALAR"
    },
    {
      "bufferView": 2,
      "byteOffset": 236928,
      "componentType": 5126,
      "count": 44,
      "max": [
        0.6031415462493896,
        9.61168384552002,
        8.22465705871582
      ],
      "min": [
        -0.6030917763710022,
        9.610779762268066,
        5.717464447021484
      ],
      "type": "VEC3"
    },
    {
      "bufferView": 2,
      "byteOffset": 237456,
      "componentType": 5126,
      "count": 44,
      "max": [
        6.58571366329852e-07,
        -1.0,
        -9.348972263012456e-09
      ],
      "min": [
        6.58571366329852e-07,
        -1.0,
        -9.348972263012456e-09
      ],
      "type": "VEC3"
    },
    {
      "bufferView": 1,
      "byteOffset": 202272,
      "componentType": 5126,
      "count": 44,
      "max": [
        0.6707220077514648,
        0.853184700012207
      ],
      "min": [
        0.3482896685600281,
        0.6074217557907104
      ],
      "type": "VEC2"
    },
    {
      "bufferView": 0,
      "byteOffset": 106848,
      "componentType": 5125,
      "count": 126,
      "type": "SCALAR"
    }
  ],
  "asset": {
    "extras": {
      "author": "ROY (https://sketchfab.com/roy.gearloft.in)",
      "license": "CC-BY-4.0 (http://creativecommons.org/licenses/by/4.0/)",
      "source": "https://sketchfab.com/3d-models/building-5ce4272e894940c29a97b4a62dd55a20",
      "title": "Building"
    },
    "generator": "Sketchfab-13.83.0",
    "version": "2.0"
  },
  "bufferViews": [
    {
      "buffer": 0,
      "byteLength": 107352,
      "name": "floatBufferViews",
      "target": 34963
    },
    {
      "buffer": 0,
      "byteLength": 202624,
      "byteOffset": 107352,
      "byteStride": 8,
      "name": "floatBufferViews",
      "target": 34962
    },
    {
      "buffer": 0,
      "byteLength": 237984,
      "byteOffset": 309976,
      "byteStride": 12,
      "name": "floatBufferViews",
      "target": 34962
    }
  ],
  "buffers": [
    {
      "byteLength": 547960,
      "uri": "scene.bin"
    }
  ],
  "images": [
    {
      "uri": "textures/Material_baseColor.jpeg"
    },
    {
      "uri": "textures/Material_metallicRoughness.png"
    },
    {
      "uri": "textures/Material.001_metallicRoughness.png"
    }
  ],
  "materials": [
    {
      "doubleSided": true,
      "name": "Material",
      "pbrMetallicRoughness": {
        "baseColorTexture": {
          "index": 0
        },
        "metallicFactor": 0.309091,
        "metallicRoughnessTexture": {
          "index": 1,
          "texCoord": 1
        }
      }
    },
    {
      "doubleSided": true,
      "name": "Material.001",
      "pbrMetallicRoughness": {
        "baseColorTexture": {
          "index": 0
        },
        "metallicFactor": 0.0,
        "metallicRoughnessTexture": {
          "index": 2
        }
      }
    },
    {
      "doubleSided": true,
      "name": "Material.005",
      "pbrMetallicRoughness": {
        "baseColorFactor": [
          0.0,
          0.0,
          0.0,
          1.0
        ],
        "metallicFactor": 0.884211,
        "roughnessFactor": 0.4678109495190842
      }
    },
    {
      "doubleSided": true,
      "name": "Material.007",
      "pbrMetallicRoughness": {
        "baseColorFactor": [
          0.310812,
          0.310812,
          0.310812,
          1.0
        ],
        "metallicFactor": 0.831776,
        "roughnessFactor": 0.266355
      }
    },
    {
      "doubleSided": true,
      "emissiveFactor": [
        1.0,
        1.0,
        1.0
      ],
      "name": "Material.006"
    }
  ],
  "meshes": [
    {
      "name": "Object_0",
      "primitives": [
        {
          "attributes": {
            "NORMAL": 1,
            "POSITION": 0,
            "TEXCOORD_0": 2,
            "TEXCOORD_1": 3,
            "TEXCOORD_2": 4
          },
          "indices": 5,
          "material": 0,
          "mode": 4
        }
      ]
    },
    {
      "name": "Object_1",
      "primitives": [
        {
          "attributes": {
            "NORMAL": 7,
            "POSITION": 6,
            "TEXCOORD_0": 8,
            "TEXCOORD_1": 9,
            "TEXCOORD_2": 10
          },
          "indices": 11,
          "material": 1,
          "mode": 4
        }
      ]
    },
    {
      "name": "Object_2",
      "primitives": [
        {
          "attributes": {
            "NORMAL": 13,
            "POSITION": 12,
            "TEXCOORD_0": 14
          },
          "indices": 15,
          "material": 2,
          "mode": 4
        }
      ]
    },
    {
      "name": "Object_3",
      "primitives": [
        {
          "attributes": {
            "NORMAL": 17,
            "POSITION": 16,
            "TEXCOORD_0": 18
          },
          "indices": 19,
          "material": 3,
          "mode": 4
        }
      ]
    },
    {
      "name": "Object_4",
      "primitives": [
        {
          "attributes": {
            "NORMAL": 21,
            "POSITION": 20,
            "TEXCOORD_0": 22
          },
          "indices": 23,
          "material": 4,
          "mode": 4
        }
      ]
    }
  ],
  "nodes": [
    {
      "children": [
        1
      ],
      "matrix": [
        4.0,
        0.0,
        0.0,
        0.0,
        0.0,
        8.881784197001252e-16,
        -4.0,
        0.0,
        0.0,
        4.0,
        8.881784197001252e-16,
        0.0,
        0.0,
        0.0,
        0.0,
        1.0
      ],
      "name": "Sketchfab_model"
    },
    {
      "children": [
        2
      ],
      "name": "root"
    },
    {
      "children": [
        3,
        6,
        8
      ],
      "matrix": [
        1.0,
        0.0,
        0.0,
        0.0,
        0.0,
        2.220446049250313e-16,
        1.0,
        0.0,
        0.0,
        -1.0,
        2.220446049250313e-16,
        0.0,
        0.0,
        0.0,
        0.0,
        1.0
      ],
      "name": "GLTF_SceneRootNode"
    },
    {
      "children": [
        4,
        5
      ],
      "matrix": [
        -8.046626938096324e-07,
        -2.9802285972380105e-08,
        -0.9999999999996758,
        0.0,
        0.9999999999996723,
        -8.940697782122697e-08,
        -8.046626911450971e-07,
        0.0,
        -8.940695384040964e-08,
        -0.9999999999999956,
        2.98023579148321e-08,
        0.0,
        0.0,
        1.1473630666732788,
        0.0,
        1.0
      ],
      "name": "Plane.003_1"
    },
    {
      "mesh": 0,
      "name": "Object_4"
    },
    {
      "mesh": 1,
      "name": "Object_5"
    },
    {
      "children": [
        7
      ],
      "matrix": [
        38.77032470703125,
        0.0,
        0.0,
        0.0,
        0.0,
        38.77032470703125,
        0.0,
        0.0,
        0.0,
        0.0,
        38.77032470703125,
        0.0,
        0.0,
        0.0,
        0.0,
        1.0
      ],
      "name": "Circle_2"
    },
    {
      "mesh": 2,
      "name": "Object_7"
    },
    {
      "children": [
        9,
        10
      ],
      "matrix": [
        -0.053940290377170935,
        0.0,
        -0.0005915024405151701,
        0.0,
        0.0,
        0.05394354090094566,
        -0.0,
        0.0,
        0.0005915024405151701,
        0.0,
        -0.053940290377170935,
        0.0,
        1.432316541671753,
        1.0161855220794678,
        -1.6590301990509033,
        1.0
      ],
      "name": "Cone_4"
    },
    {
      "mesh": 3,
      "name": "Object_9"
    },
    {
      "mesh": 4,
      "name": "Object_10"
    }
  ],
  "samplers": [
    {
      "magFilter": 9729,
      "minFilter": 9987,
      "wrapS": 10497,
      "wrapT": 10497
    }
  ],
  "scene": 0,
  "scenes": [
    {
      "name": "Sketchfab_Scene",
      "nodes": [
        0
      ]
    }
  ],
  "textures": [
    {
      "sampler": 0,
      "source": 0
    },
    {
      "sampler": 0,
      "source": 1
    },
    {
      "sampler": 0,
      "source": 2
    }
  ]
}
